<svg width="0" height="0" class="hidden">
  <symbol viewBox="0 0 1024 1024" xmlns="http://www.w3.org/2000/svg" id="view">
    <path d="M512 608a96 96 0 1 1 0-192 96 96 0 0 1 0 192m0-256c-88.224 0-160 71.776-160 160s71.776 160 160 160 160-71.776 160-160-71.776-160-160-160"></path>
    <path d="M512 800c-212.064 0-384-256-384-288s171.936-288 384-288 384 256 384 288-171.936 288-384 288m0-640C265.248 160 64 443.008 64 512c0 68.992 201.248 352 448 352s448-283.008 448-352c0-68.992-201.248-352-448-352"></path>
  </symbol>
  <symbol viewBox="0 0 1024 1024" xmlns="http://www.w3.org/2000/svg" id="view_off">
    <path d="M512 800c-66.112 0-128.32-24.896-182.656-60.096l94.976-94.976A156.256 156.256 0 0 0 512 672c88.224 0 160-71.776 160-160a156.256 156.256 0 0 0-27.072-87.68l101.536-101.536C837.28 398.624 896 493.344 896 512c0 32-171.936 288-384 288m96-288a96 96 0 0 1-96 96c-14.784 0-28.64-3.616-41.088-9.664l127.424-127.424C604.384 483.36 608 497.216 608 512m-480 0c0-32 171.936-288 384-288 66.112 0 128.32 24.896 182.656 60.096l-417.12 417.12C186.72 625.376 128 530.656 128 512m664.064-234.816l91.328-91.328-45.248-45.248-97.632 97.632C673.472 192.704 595.456 160 512 160 265.248 160 64 443.008 64 512c0 39.392 65.728 148.416 167.936 234.816l-91.328 91.328 45.248 45.248 97.632-97.632C350.528 831.296 428.544 864 512 864c246.752 0 448-283.008 448-352 0-39.392-65.728-148.416-167.936-234.816"></path>
    <path d="M512 352c-88.224 0-160 71.776-160 160 0 15.328 2.848 29.856 6.88 43.872l58.592-58.592a95.616 95.616 0 0 1 79.808-79.808l58.592-58.592A157.76 157.76 0 0 0 512 352"></path>
  </symbol>
</svg>